<?xml version="1.0" encoding="UTF-8" standalone="no"?>
<!-- Created with Inkscape (http://www.inkscape.org/) -->

<svg
   xmlns:dc="http://purl.org/dc/elements/1.1/"
   xmlns:cc="http://creativecommons.org/ns#"
   xmlns:rdf="http://www.w3.org/1999/02/22-rdf-syntax-ns#"
   xmlns:svg="http://www.w3.org/2000/svg"
   xmlns="http://www.w3.org/2000/svg"
   xmlns:sodipodi="http://sodipodi.sourceforge.net/DTD/sodipodi-0.dtd"
   xmlns:inkscape="http://www.inkscape.org/namespaces/inkscape"
   width="800"
   height="800"
   id="svg2"
   version="1.1"
   inkscape:version="0.48.5 r10040"
   sodipodi:docname="ambient-noise-cartoon.svg">
  <defs
     id="defs4">
    <marker
       inkscape:stockid="StopL"
       orient="auto"
       refY="0.0"
       refX="0.0"
       id="StopL"
       style="overflow:visible">
      <path
         id="path4531"
         d="M 0.0,5.65 L 0.0,-5.65"
         style="fill:none;fill-opacity:0.75000000;fill-rule:evenodd;stroke:#000000;stroke-width:1.0pt"
         transform="scale(0.8)" />
    </marker>
    <marker
       style="overflow:visible"
       id="DistanceStart"
       refX="0.0"
       refY="0.0"
       orient="auto"
       inkscape:stockid="DistanceStart">
      <g
         id="g2300">
        <path
           style="fill:none;stroke:#ffffff;stroke-width:1.15;stroke-linecap:square"
           d="M 0,0 L 2,0"
           id="path2306" />
        <path
           style="fill:#000000;fill-rule:evenodd;stroke:none"
           d="M 0,0 L 13,4 L 9,0 13,-4 L 0,0 z "
           id="path2302" />
        <path
           style="fill:none;stroke:#000000;stroke-width:1;stroke-linecap:square"
           d="M 0,-4 L 0,40"
           id="path2304" />
      </g>
    </marker>
  </defs>
  <sodipodi:namedview
     id="base"
     pagecolor="#ffffff"
     bordercolor="#666666"
     borderopacity="1.0"
     inkscape:pageopacity="0.0"
     inkscape:pageshadow="2"
     inkscape:zoom="1.23"
     inkscape:cx="375"
     inkscape:cy="395.33702"
     inkscape:document-units="px"
     inkscape:current-layer="layer1"
     showgrid="false"
     inkscape:window-width="1484"
     inkscape:window-height="1266"
     inkscape:window-x="507"
     inkscape:window-y="0"
     inkscape:window-maximized="0" />
  <metadata
     id="metadata7">
    <rdf:RDF>
      <cc:Work
         rdf:about="">
        <dc:format>image/svg+xml</dc:format>
        <dc:type
           rdf:resource="http://purl.org/dc/dcmitype/StillImage" />
        <dc:title></dc:title>
      </cc:Work>
    </rdf:RDF>
  </metadata>
  <g
     inkscape:label="Layer 1"
     inkscape:groupmode="layer"
     id="layer1"
     transform="translate(0,-252.36218)">
    <path
       sodipodi:type="star"
       style="fill:#ff0000;fill-opacity:1;fill-rule:nonzero;stroke:none"
       id="path2985"
       sodipodi:sides="3"
       sodipodi:cx="177.23576"
       sodipodi:cy="253.65854"
       sodipodi:r1="33.481724"
       sodipodi:r2="16.740862"
       sodipodi:arg1="-0.5070985"
       sodipodi:arg2="0.54009905"
       inkscape:flatsided="true"
       inkscape:rounded="0"
       inkscape:randomized="0"
       d="M 206.50406,237.39838 176.68333,287.1357 148.5199,236.44154 z"
       transform="translate(69.918702,159.67924)"
       inkscape:transform-center-x="-0.27621623"
       inkscape:transform-center-y="8.1300813" />
    <path
       sodipodi:type="star"
       style="fill:#2f00ff;fill-opacity:1;fill-rule:nonzero;stroke:none"
       id="path2985-2"
       sodipodi:sides="3"
       sodipodi:cx="177.23576"
       sodipodi:cy="253.65854"
       sodipodi:r1="33.481724"
       sodipodi:r2="16.740862"
       sodipodi:arg1="-0.5070985"
       sodipodi:arg2="0.54009905"
       inkscape:flatsided="true"
       inkscape:rounded="0"
       inkscape:randomized="0"
       d="M 206.50406,237.39838 176.68333,287.1357 148.5199,236.44154 z"
       transform="translate(68.016477,243.41909)"
       inkscape:transform-center-x="-0.27621623"
       inkscape:transform-center-y="8.1300813" />
    <path
       sodipodi:type="star"
       style="fill:#fd780d;fill-opacity:1;stroke:none"
       id="path3795"
       sodipodi:sides="8"
       sodipodi:cx="112.19512"
       sodipodi:cy="64.227638"
       sodipodi:r1="13.334325"
       sodipodi:r2="5.7761893"
       sodipodi:arg1="0.9151007"
       sodipodi:arg2="1.51845"
       inkscape:flatsided="false"
       inkscape:rounded="0"
       inkscape:randomized="0"
       d="m 120.3252,74.796744 -7.82785,-4.800828 -2.02688,7.454044 -2.14043,-8.929829 -6.70402,3.837589 4.80082,-7.827858 -7.45404,-2.026874 8.92983,-2.140433 -3.83759,-6.704022 7.82786,4.800828 2.02687,-7.454045 2.14043,8.929829 6.70403,-3.837588 -4.80083,7.827857 7.45404,2.026875 -8.92983,2.140432 z"
       transform="matrix(1.0966304,0,0,1.0966304,46.533782,261.95133)"
       inkscape:transform-center-x="0.12369098"
       inkscape:transform-center-y="-1.2781925" />
    <path
       transform="translate(102.43903,232.84998)"
       sodipodi:type="star"
       style="fill:#fd780d;fill-opacity:1;stroke:none"
       id="path3795-3"
       sodipodi:sides="8"
       sodipodi:cx="112.19512"
       sodipodi:cy="64.227638"
       sodipodi:r1="13.334325"
       sodipodi:r2="5.7761893"
       sodipodi:arg1="0.9151007"
       sodipodi:arg2="1.51845"
       inkscape:flatsided="false"
       inkscape:rounded="0"
       inkscape:randomized="0"
       d="m 120.3252,74.796744 -7.82785,-4.800828 -2.02688,7.454044 -2.14043,-8.929829 -6.70402,3.837589 4.80082,-7.827858 -7.45404,-2.026874 8.92983,-2.140433 -3.83759,-6.704022 7.82786,4.800828 2.02687,-7.454045 2.14043,8.929829 6.70403,-3.837588 -4.80083,7.827857 7.45404,2.026875 -8.92983,2.140432 z"
       inkscape:transform-center-x="0.11279413"
       inkscape:transform-center-y="-1.165564" />
    <path
       transform="translate(177.23577,249.92316)"
       sodipodi:type="star"
       style="fill:#fd780d;fill-opacity:1;stroke:none"
       id="path3795-8"
       sodipodi:sides="8"
       sodipodi:cx="112.19512"
       sodipodi:cy="64.227638"
       sodipodi:r1="13.334325"
       sodipodi:r2="5.7761893"
       sodipodi:arg1="0.9151007"
       sodipodi:arg2="1.51845"
       inkscape:flatsided="false"
       inkscape:rounded="0"
       inkscape:randomized="0"
       d="m 120.3252,74.796744 -7.82785,-4.800828 -2.02688,7.454044 -2.14043,-8.929829 -6.70402,3.837589 4.80082,-7.827858 -7.45404,-2.026874 8.92983,-2.140433 -3.83759,-6.704022 7.82786,4.800828 2.02687,-7.454045 2.14043,8.929829 6.70403,-3.837588 -4.80083,7.827857 7.45404,2.026875 -8.92983,2.140432 z"
       inkscape:transform-center-x="0.11279413"
       inkscape:transform-center-y="-1.165564" />
    <path
       transform="matrix(1.3235194,0,0,1.3235194,239.52509,212.67147)"
       sodipodi:type="star"
       style="fill:#fd780d;fill-opacity:1;stroke:none"
       id="path3795-6"
       sodipodi:sides="8"
       sodipodi:cx="112.19512"
       sodipodi:cy="64.227638"
       sodipodi:r1="13.334325"
       sodipodi:r2="5.7761893"
       sodipodi:arg1="0.9151007"
       sodipodi:arg2="1.51845"
       inkscape:flatsided="false"
       inkscape:rounded="0"
       inkscape:randomized="0"
       d="m 120.3252,74.796744 -7.82785,-4.800828 -2.02688,7.454044 -2.14043,-8.929829 -6.70402,3.837589 4.80082,-7.827858 -7.45404,-2.026874 8.92983,-2.140433 -3.83759,-6.704022 7.82786,4.800828 2.02687,-7.454045 2.14043,8.929829 6.70403,-3.837588 -4.80083,7.827857 7.45404,2.026875 -8.92983,2.140432 z"
       inkscape:transform-center-x="0.14928475"
       inkscape:transform-center-y="-1.5426516" />
    <path
       transform="matrix(1.0966304,0,0,1.0966304,285.55817,283.08954)"
       sodipodi:type="star"
       style="fill:#fd780d;fill-opacity:1;stroke:none"
       id="path3795-2"
       sodipodi:sides="8"
       sodipodi:cx="112.19512"
       sodipodi:cy="64.227638"
       sodipodi:r1="13.334325"
       sodipodi:r2="5.7761893"
       sodipodi:arg1="0.9151007"
       sodipodi:arg2="1.51845"
       inkscape:flatsided="false"
       inkscape:rounded="0"
       inkscape:randomized="0"
       d="m 120.3252,74.796744 -7.82785,-4.800828 -2.02688,7.454044 -2.14043,-8.929829 -6.70402,3.837589 4.80082,-7.827858 -7.45404,-2.026874 8.92983,-2.140433 -3.83759,-6.704022 7.82786,4.800828 2.02687,-7.454045 2.14043,8.929829 6.70403,-3.837588 -4.80083,7.827857 7.45404,2.026875 -8.92983,2.140432 z"
       inkscape:transform-center-x="0.12369198"
       inkscape:transform-center-y="-1.2781925" />
    <path
       transform="translate(278.04878,346.67112)"
       sodipodi:type="star"
       style="fill:#fd780d;fill-opacity:1;stroke:none"
       id="path3795-1"
       sodipodi:sides="8"
       sodipodi:cx="112.19512"
       sodipodi:cy="64.227638"
       sodipodi:r1="13.334325"
       sodipodi:r2="5.7761893"
       sodipodi:arg1="0.9151007"
       sodipodi:arg2="1.51845"
       inkscape:flatsided="false"
       inkscape:rounded="0"
       inkscape:randomized="0"
       d="m 120.3252,74.796744 -7.82785,-4.800828 -2.02688,7.454044 -2.14043,-8.929829 -6.70402,3.837589 4.80082,-7.827858 -7.45404,-2.026874 8.92983,-2.140433 -3.83759,-6.704022 7.82786,4.800828 2.02687,-7.454045 2.14043,8.929829 6.70403,-3.837588 -4.80083,7.827857 7.45404,2.026875 -8.92983,2.140432 z"
       inkscape:transform-center-x="0.11279413"
       inkscape:transform-center-y="-1.165564" />
    <path
       transform="matrix(0.90755618,0,0,0.90755618,229.47462,291.22927)"
       sodipodi:type="star"
       style="fill:#fd780d;fill-opacity:1;stroke:none"
       id="path3795-37"
       sodipodi:sides="8"
       sodipodi:cx="112.19512"
       sodipodi:cy="64.227638"
       sodipodi:r1="13.334325"
       sodipodi:r2="5.7761893"
       sodipodi:arg1="0.9151007"
       sodipodi:arg2="1.51845"
       inkscape:flatsided="false"
       inkscape:rounded="0"
       inkscape:randomized="0"
       d="m 120.3252,74.796744 -7.82785,-4.800828 -2.02688,7.454044 -2.14043,-8.929829 -6.70402,3.837589 4.80082,-7.827858 -7.45404,-2.026874 8.92983,-2.140433 -3.83759,-6.704022 7.82786,4.800828 2.02687,-7.454045 2.14043,8.929829 6.70403,-3.837588 -4.80083,7.827857 7.45404,2.026875 -8.92983,2.140432 z"
       inkscape:transform-center-x="0.10237066"
       inkscape:transform-center-y="-1.057815" />
    <path
       transform="matrix(0.64285229,0,0,0.64285229,163.8032,293.84441)"
       sodipodi:type="star"
       style="fill:#fd780d;fill-opacity:1;stroke:none"
       id="path3795-39"
       sodipodi:sides="8"
       sodipodi:cx="112.19512"
       sodipodi:cy="64.227638"
       sodipodi:r1="13.334325"
       sodipodi:r2="5.7761893"
       sodipodi:arg1="0.9151007"
       sodipodi:arg2="1.51845"
       inkscape:flatsided="false"
       inkscape:rounded="0"
       inkscape:randomized="0"
       d="m 120.3252,74.796744 -7.82785,-4.800828 -2.02688,7.454044 -2.14043,-8.929829 -6.70402,3.837589 4.80082,-7.827858 -7.45404,-2.026874 8.92983,-2.140433 -3.83759,-6.704022 7.82786,4.800828 2.02687,-7.454045 2.14043,8.929829 6.70403,-3.837588 -4.80083,7.827857 7.45404,2.026875 -8.92983,2.140432 z"
       inkscape:transform-center-x="0.072508785"
       inkscape:transform-center-y="-0.7492814" />
    <path
       transform="matrix(0.56722261,0,0,0.56722261,36.329125,304.57996)"
       sodipodi:type="star"
       style="fill:#fd780d;fill-opacity:1;stroke:none"
       id="path3795-9"
       sodipodi:sides="8"
       sodipodi:cx="112.19512"
       sodipodi:cy="64.227638"
       sodipodi:r1="13.334325"
       sodipodi:r2="5.7761893"
       sodipodi:arg1="0.9151007"
       sodipodi:arg2="1.51845"
       inkscape:flatsided="false"
       inkscape:rounded="0"
       inkscape:randomized="0"
       d="m 120.3252,74.796744 -7.82785,-4.800828 -2.02688,7.454044 -2.14043,-8.929829 -6.70402,3.837589 4.80082,-7.827858 -7.45404,-2.026874 8.92983,-2.140433 -3.83759,-6.704022 7.82786,4.800828 2.02687,-7.454045 2.14043,8.929829 6.70403,-3.837588 -4.80083,7.827857 7.45404,2.026875 -8.92983,2.140432 z"
       inkscape:transform-center-x="0.063979357"
       inkscape:transform-center-y="-0.66113589" />
    <path
       transform="matrix(0.45377809,0,0,0.45377809,72.760299,370.27681)"
       sodipodi:type="star"
       style="fill:#fd780d;fill-opacity:1;stroke:none"
       id="path3795-97"
       sodipodi:sides="8"
       sodipodi:cx="112.19512"
       sodipodi:cy="64.227638"
       sodipodi:r1="13.334325"
       sodipodi:r2="5.7761893"
       sodipodi:arg1="0.9151007"
       sodipodi:arg2="1.51845"
       inkscape:flatsided="false"
       inkscape:rounded="0"
       inkscape:randomized="0"
       d="m 120.3252,74.796744 -7.82785,-4.800828 -2.02688,7.454044 -2.14043,-8.929829 -6.70402,3.837589 4.80082,-7.827858 -7.45404,-2.026874 8.92983,-2.140433 -3.83759,-6.704022 7.82786,4.800828 2.02687,-7.454045 2.14043,8.929829 6.70403,-3.837588 -4.80083,7.827857 7.45404,2.026875 -8.92983,2.140432 z"
       inkscape:transform-center-x="0.051183216"
       inkscape:transform-center-y="-0.52890263" />
    <path
       transform="translate(-39.837399,340.16706)"
       sodipodi:type="star"
       style="fill:#fd780d;fill-opacity:1;stroke:none"
       id="path3795-0"
       sodipodi:sides="8"
       sodipodi:cx="112.19512"
       sodipodi:cy="64.227638"
       sodipodi:r1="13.334325"
       sodipodi:r2="5.7761893"
       sodipodi:arg1="0.9151007"
       sodipodi:arg2="1.51845"
       inkscape:flatsided="false"
       inkscape:rounded="0"
       inkscape:randomized="0"
       d="m 120.3252,74.796744 -7.82785,-4.800828 -2.02688,7.454044 -2.14043,-8.929829 -6.70402,3.837589 4.80082,-7.827858 -7.45404,-2.026874 8.92983,-2.140433 -3.83759,-6.704022 7.82786,4.800828 2.02687,-7.454045 2.14043,8.929829 6.70403,-3.837588 -4.80083,7.827857 7.45404,2.026875 -8.92983,2.140432 z"
       inkscape:transform-center-x="0.11279413"
       inkscape:transform-center-y="-1.165564" />
    <path
       transform="translate(2.439025,388.13455)"
       sodipodi:type="star"
       style="fill:#fd780d;fill-opacity:1;stroke:none"
       id="path3795-63"
       sodipodi:sides="8"
       sodipodi:cx="112.19512"
       sodipodi:cy="64.227638"
       sodipodi:r1="13.334325"
       sodipodi:r2="5.7761893"
       sodipodi:arg1="0.9151007"
       sodipodi:arg2="1.51845"
       inkscape:flatsided="false"
       inkscape:rounded="0"
       inkscape:randomized="0"
       d="m 120.3252,74.796744 -7.82785,-4.800828 -2.02688,7.454044 -2.14043,-8.929829 -6.70402,3.837589 4.80082,-7.827858 -7.45404,-2.026874 8.92983,-2.140433 -3.83759,-6.704022 7.82786,4.800828 2.02687,-7.454045 2.14043,8.929829 6.70403,-3.837588 -4.80083,7.827857 7.45404,2.026875 -8.92983,2.140432 z"
       inkscape:transform-center-x="0.11279413"
       inkscape:transform-center-y="-1.165564" />
    <path
       transform="matrix(1.2100749,0,0,1.2100749,292.21643,371.05125)"
       sodipodi:type="star"
       style="fill:#fd780d;fill-opacity:1;stroke:none"
       id="path3795-4"
       sodipodi:sides="8"
       sodipodi:cx="112.19512"
       sodipodi:cy="64.227638"
       sodipodi:r1="13.334325"
       sodipodi:r2="5.7761893"
       sodipodi:arg1="0.9151007"
       sodipodi:arg2="1.51845"
       inkscape:flatsided="false"
       inkscape:rounded="0"
       inkscape:randomized="0"
       d="m 120.3252,74.796744 -7.82785,-4.800828 -2.02688,7.454044 -2.14043,-8.929829 -6.70402,3.837589 4.80082,-7.827858 -7.45404,-2.026874 8.92983,-2.140433 -3.83759,-6.704022 7.82786,4.800828 2.02687,-7.454045 2.14043,8.929829 6.70403,-3.837588 -4.80083,7.827857 7.45404,2.026875 -8.92983,2.140432 z"
       inkscape:transform-center-x="0.13648837"
       inkscape:transform-center-y="-1.4104171" />
    <path
       transform="matrix(0.8319265,0,0,0.8319265,278.42333,413.34695)"
       sodipodi:type="star"
       style="fill:#fd780d;fill-opacity:1;stroke:none"
       id="path3795-15"
       sodipodi:sides="8"
       sodipodi:cx="112.19512"
       sodipodi:cy="64.227638"
       sodipodi:r1="13.334325"
       sodipodi:r2="5.7761893"
       sodipodi:arg1="0.9151007"
       sodipodi:arg2="1.51845"
       inkscape:flatsided="false"
       inkscape:rounded="0"
       inkscape:randomized="0"
       d="m 120.3252,74.796744 -7.82785,-4.800828 -2.02688,7.454044 -2.14043,-8.929829 -6.70402,3.837589 4.80082,-7.827858 -7.45404,-2.026874 8.92983,-2.140433 -3.83759,-6.704022 7.82786,4.800828 2.02687,-7.454045 2.14043,8.929829 6.70403,-3.837588 -4.80083,7.827857 7.45404,2.026875 -8.92983,2.140432 z"
       inkscape:transform-center-x="0.093831231"
       inkscape:transform-center-y="-0.96965952" />
    <path
       transform="matrix(0.52940777,0,0,0.52940777,352.26688,496.93962)"
       sodipodi:type="star"
       style="fill:#fd780d;fill-opacity:1;stroke:none"
       id="path3795-89"
       sodipodi:sides="8"
       sodipodi:cx="112.19512"
       sodipodi:cy="64.227638"
       sodipodi:r1="13.334325"
       sodipodi:r2="5.7761893"
       sodipodi:arg1="0.9151007"
       sodipodi:arg2="1.51845"
       inkscape:flatsided="false"
       inkscape:rounded="0"
       inkscape:randomized="0"
       d="m 120.3252,74.796744 -7.82785,-4.800828 -2.02688,7.454044 -2.14043,-8.929829 -6.70402,3.837589 4.80082,-7.827858 -7.45404,-2.026874 8.92983,-2.140433 -3.83759,-6.704022 7.82786,4.800828 2.02687,-7.454045 2.14043,8.929829 6.70403,-3.837588 -4.80083,7.827857 7.45404,2.026875 -8.92983,2.140432 z"
       inkscape:transform-center-x="0.059714643"
       inkscape:transform-center-y="-0.61705814" />
    <path
       transform="translate(273.98374,425.53291)"
       sodipodi:type="star"
       style="fill:#fd780d;fill-opacity:1;stroke:none"
       id="path3795-61"
       sodipodi:sides="8"
       sodipodi:cx="112.19512"
       sodipodi:cy="64.227638"
       sodipodi:r1="13.334325"
       sodipodi:r2="5.7761893"
       sodipodi:arg1="0.9151007"
       sodipodi:arg2="1.51845"
       inkscape:flatsided="false"
       inkscape:rounded="0"
       inkscape:randomized="0"
       d="m 120.3252,74.796744 -7.82785,-4.800828 -2.02688,7.454044 -2.14043,-8.929829 -6.70402,3.837589 4.80082,-7.827858 -7.45404,-2.026874 8.92983,-2.140433 -3.83759,-6.704022 7.82786,4.800828 2.02687,-7.454045 2.14043,8.929829 6.70403,-3.837588 -4.80083,7.827857 7.45404,2.026875 -8.92983,2.140432 z"
       inkscape:transform-center-x="0.11279413"
       inkscape:transform-center-y="-1.165564" />
    <path
       transform="matrix(0.71848197,0,0,0.71848197,250.62686,516.44217)"
       sodipodi:type="star"
       style="fill:#fd780d;fill-opacity:1;stroke:none"
       id="path3795-14"
       sodipodi:sides="8"
       sodipodi:cx="112.19512"
       sodipodi:cy="64.227638"
       sodipodi:r1="13.334325"
       sodipodi:r2="5.7761893"
       sodipodi:arg1="0.9151007"
       sodipodi:arg2="1.51845"
       inkscape:flatsided="false"
       inkscape:rounded="0"
       inkscape:randomized="0"
       d="m 120.3252,74.796744 -7.82785,-4.800828 -2.02688,7.454044 -2.14043,-8.929829 -6.70402,3.837589 4.80082,-7.827858 -7.45404,-2.026874 8.92983,-2.140433 -3.83759,-6.704022 7.82786,4.800828 2.02687,-7.454045 2.14043,8.929829 6.70403,-3.837588 -4.80083,7.827857 7.45404,2.026875 -8.92983,2.140432 z"
       inkscape:transform-center-x="0.081038212"
       inkscape:transform-center-y="-0.83743691" />
    <path
       transform="matrix(0.8319265,0,0,0.8319265,288.99243,523.91606)"
       sodipodi:type="star"
       style="fill:#fd780d;fill-opacity:1;stroke:none"
       id="path3795-29"
       sodipodi:sides="8"
       sodipodi:cx="112.19512"
       sodipodi:cy="64.227638"
       sodipodi:r1="13.334325"
       sodipodi:r2="5.7761893"
       sodipodi:arg1="0.9151007"
       sodipodi:arg2="1.51845"
       inkscape:flatsided="false"
       inkscape:rounded="0"
       inkscape:randomized="0"
       d="m 120.3252,74.796744 -7.82785,-4.800828 -2.02688,7.454044 -2.14043,-8.929829 -6.70402,3.837589 4.80082,-7.827858 -7.45404,-2.026874 8.92983,-2.140433 -3.83759,-6.704022 7.82786,4.800828 2.02687,-7.454045 2.14043,8.929829 6.70403,-3.837588 -4.80083,7.827857 7.45404,2.026875 -8.92983,2.140432 z"
       inkscape:transform-center-x="0.093831231"
       inkscape:transform-center-y="-0.96965952" />
    <path
       transform="translate(201.62601,556.42723)"
       sodipodi:type="star"
       style="fill:#fd780d;fill-opacity:1;stroke:none"
       id="path3795-66"
       sodipodi:sides="8"
       sodipodi:cx="112.19512"
       sodipodi:cy="64.227638"
       sodipodi:r1="13.334325"
       sodipodi:r2="5.7761893"
       sodipodi:arg1="0.9151007"
       sodipodi:arg2="1.51845"
       inkscape:flatsided="false"
       inkscape:rounded="0"
       inkscape:randomized="0"
       d="m 120.3252,74.796744 -7.82785,-4.800828 -2.02688,7.454044 -2.14043,-8.929829 -6.70402,3.837589 4.80082,-7.827858 -7.45404,-2.026874 8.92983,-2.140433 -3.83759,-6.704022 7.82786,4.800828 2.02687,-7.454045 2.14043,8.929829 6.70403,-3.837588 -4.80083,7.827857 7.45404,2.026875 -8.92983,2.140432 z"
       inkscape:transform-center-x="0.11279413"
       inkscape:transform-center-y="-1.165564" />
    <path
       transform="matrix(0.75629681,0,0,0.75629681,172.90048,532.21259)"
       sodipodi:type="star"
       style="fill:#fd780d;fill-opacity:1;stroke:none"
       id="path3795-05"
       sodipodi:sides="8"
       sodipodi:cx="112.19512"
       sodipodi:cy="64.227638"
       sodipodi:r1="13.334325"
       sodipodi:r2="5.7761893"
       sodipodi:arg1="0.9151007"
       sodipodi:arg2="1.51845"
       inkscape:flatsided="false"
       inkscape:rounded="0"
       inkscape:randomized="0"
       d="m 120.3252,74.796744 -7.82785,-4.800828 -2.02688,7.454044 -2.14043,-8.929829 -6.70402,3.837589 4.80082,-7.827858 -7.45404,-2.026874 8.92983,-2.140433 -3.83759,-6.704022 7.82786,4.800828 2.02687,-7.454045 2.14043,8.929829 6.70403,-3.837588 -4.80083,7.827857 7.45404,2.026875 -8.92983,2.140432 z"
       inkscape:transform-center-x="0.085302926"
       inkscape:transform-center-y="-0.88151466" />
    <path
       transform="matrix(0.68066713,0,0,0.68066713,143.80039,588.47662)"
       sodipodi:type="star"
       style="fill:#fd780d;fill-opacity:1;stroke:none"
       id="path3795-27"
       sodipodi:sides="8"
       sodipodi:cx="112.19512"
       sodipodi:cy="64.227638"
       sodipodi:r1="13.334325"
       sodipodi:r2="5.7761893"
       sodipodi:arg1="0.9151007"
       sodipodi:arg2="1.51845"
       inkscape:flatsided="false"
       inkscape:rounded="0"
       inkscape:randomized="0"
       d="m 120.3252,74.796744 -7.82785,-4.800828 -2.02688,7.454044 -2.14043,-8.929829 -6.70402,3.837589 4.80082,-7.827858 -7.45404,-2.026874 8.92983,-2.140433 -3.83759,-6.704022 7.82786,4.800828 2.02687,-7.454045 2.14043,8.929829 6.70403,-3.837588 -4.80083,7.827857 7.45404,2.026875 -8.92983,2.140432 z"
       inkscape:transform-center-x="0.076773498"
       inkscape:transform-center-y="-0.79335915" />
    <path
       transform="matrix(1.0210007,0,0,1.0210007,80.035324,496.26414)"
       sodipodi:type="star"
       style="fill:#fd780d;fill-opacity:1;stroke:none"
       id="path3795-87"
       sodipodi:sides="8"
       sodipodi:cx="112.19512"
       sodipodi:cy="64.227638"
       sodipodi:r1="13.334325"
       sodipodi:r2="5.7761893"
       sodipodi:arg1="0.9151007"
       sodipodi:arg2="1.51845"
       inkscape:flatsided="false"
       inkscape:rounded="0"
       inkscape:randomized="0"
       d="m 120.3252,74.796744 -7.82785,-4.800828 -2.02688,7.454044 -2.14043,-8.929829 -6.70402,3.837589 4.80082,-7.827858 -7.45404,-2.026874 8.92983,-2.140433 -3.83759,-6.704022 7.82786,4.800828 2.02687,-7.454045 2.14043,8.929829 6.70403,-3.837588 -4.80083,7.827857 7.45404,2.026875 -8.92983,2.140432 z"
       inkscape:transform-center-x="0.1151628"
       inkscape:transform-center-y="-1.1900383" />
    <path
       transform="matrix(1.4747788,0,0,1.4747788,51.383798,500.14343)"
       sodipodi:type="star"
       style="fill:#fd780d;fill-opacity:1;stroke:none"
       id="path3795-7"
       sodipodi:sides="8"
       sodipodi:cx="112.19512"
       sodipodi:cy="64.227638"
       sodipodi:r1="13.334325"
       sodipodi:r2="5.7761893"
       sodipodi:arg1="0.9151007"
       sodipodi:arg2="1.51845"
       inkscape:flatsided="false"
       inkscape:rounded="0"
       inkscape:randomized="0"
       d="m 120.3252,74.796744 -7.82785,-4.800828 -2.02688,7.454044 -2.14043,-8.929829 -6.70402,3.837589 4.80082,-7.827858 -7.45404,-2.026874 8.92983,-2.140433 -3.83759,-6.704022 7.82786,4.800828 2.02687,-7.454045 2.14043,8.929829 6.70403,-3.837588 -4.80083,7.827857 7.45404,2.026875 -8.92983,2.140432 z"
       inkscape:transform-center-x="0.16634512"
       inkscape:transform-center-y="-1.71895" />
    <path
       transform="translate(29.268294,536.91503)"
       sodipodi:type="star"
       style="fill:#fd780d;fill-opacity:1;stroke:none"
       id="path3795-5"
       sodipodi:sides="8"
       sodipodi:cx="112.19512"
       sodipodi:cy="64.227638"
       sodipodi:r1="13.334325"
       sodipodi:r2="5.7761893"
       sodipodi:arg1="0.9151007"
       sodipodi:arg2="1.51845"
       inkscape:flatsided="false"
       inkscape:rounded="0"
       inkscape:randomized="0"
       d="m 120.3252,74.796744 -7.82785,-4.800828 -2.02688,7.454044 -2.14043,-8.929829 -6.70402,3.837589 4.80082,-7.827858 -7.45404,-2.026874 8.92983,-2.140433 -3.83759,-6.704022 7.82786,4.800828 2.02687,-7.454045 2.14043,8.929829 6.70403,-3.837588 -4.80083,7.827857 7.45404,2.026875 -8.92983,2.140432 z"
       inkscape:transform-center-x="0.11279413"
       inkscape:transform-center-y="-1.165564" />
    <path
       transform="matrix(0.79411166,0,0,0.79411166,1.6781589,513.02367)"
       sodipodi:type="star"
       style="fill:#fd780d;fill-opacity:1;stroke:none"
       id="path3795-68"
       sodipodi:sides="8"
       sodipodi:cx="112.19512"
       sodipodi:cy="64.227638"
       sodipodi:r1="13.334325"
       sodipodi:r2="5.7761893"
       sodipodi:arg1="0.9151007"
       sodipodi:arg2="1.51845"
       inkscape:flatsided="false"
       inkscape:rounded="0"
       inkscape:randomized="0"
       d="m 120.3252,74.796744 -7.82785,-4.800828 -2.02688,7.454044 -2.14043,-8.929829 -6.70402,3.837589 4.80082,-7.827858 -7.45404,-2.026874 8.92983,-2.140433 -3.83759,-6.704022 7.82786,4.800828 2.02687,-7.454045 2.14043,8.929829 6.70403,-3.837588 -4.80083,7.827857 7.45404,2.026875 -8.92983,2.140432 z"
       inkscape:transform-center-x="0.089570618"
       inkscape:transform-center-y="-0.92559177" />
    <path
       transform="matrix(0.39497601,0,0,0.39497601,78.580105,504.91232)"
       sodipodi:type="star"
       style="fill:#fd780d;fill-opacity:1;stroke:none"
       id="path3795-55"
       sodipodi:sides="8"
       sodipodi:cx="112.19512"
       sodipodi:cy="64.227638"
       sodipodi:r1="13.334325"
       sodipodi:r2="5.7761893"
       sodipodi:arg1="0.9151007"
       sodipodi:arg2="1.51845"
       inkscape:flatsided="false"
       inkscape:rounded="0"
       inkscape:randomized="0"
       d="m 120.3252,74.796744 -7.82785,-4.800828 -2.02688,7.454044 -2.14043,-8.929829 -6.70402,3.837589 4.80082,-7.827858 -7.45404,-2.026874 8.92983,-2.140433 -3.83759,-6.704022 7.82786,4.800828 2.02687,-7.454045 2.14043,8.929829 6.70403,-3.837588 -4.80083,7.827857 7.45404,2.026875 -8.92983,2.140432 z"
       inkscape:transform-center-x="0.044551212"
       inkscape:transform-center-y="-0.46037377" />
    <path
       transform="translate(-30.081301,454.80121)"
       sodipodi:type="star"
       style="fill:#fd780d;fill-opacity:1;stroke:none"
       id="path3795-55-1"
       sodipodi:sides="8"
       sodipodi:cx="112.19512"
       sodipodi:cy="64.227638"
       sodipodi:r1="13.334325"
       sodipodi:r2="5.7761893"
       sodipodi:arg1="0.9151007"
       sodipodi:arg2="1.51845"
       inkscape:flatsided="false"
       inkscape:rounded="0"
       inkscape:randomized="0"
       d="m 120.3252,74.796744 -7.82785,-4.800828 -2.02688,7.454044 -2.14043,-8.929829 -6.70402,3.837589 4.80082,-7.827858 -7.45404,-2.026874 8.92983,-2.140433 -3.83759,-6.704022 7.82786,4.800828 2.02687,-7.454045 2.14043,8.929829 6.70403,-3.837588 -4.80083,7.827857 7.45404,2.026875 -8.92983,2.140432 z"
       inkscape:transform-center-x="0.11279413"
       inkscape:transform-center-y="-1.165564" />
    <path
       transform="matrix(1.3235194,0,0,1.3235194,-71.044013,362.26497)"
       sodipodi:type="star"
       style="fill:#fd780d;fill-opacity:1;stroke:none"
       id="path3795-55-3"
       sodipodi:sides="8"
       sodipodi:cx="112.19512"
       sodipodi:cy="64.227638"
       sodipodi:r1="13.334325"
       sodipodi:r2="5.7761893"
       sodipodi:arg1="0.9151007"
       sodipodi:arg2="1.51845"
       inkscape:flatsided="false"
       inkscape:rounded="0"
       inkscape:randomized="0"
       d="m 120.3252,74.796744 -7.82785,-4.800828 -2.02688,7.454044 -2.14043,-8.929829 -6.70402,3.837589 4.80082,-7.827858 -7.45404,-2.026874 8.92983,-2.140433 -3.83759,-6.704022 7.82786,4.800828 2.02687,-7.454045 2.14043,8.929829 6.70403,-3.837588 -4.80083,7.827857 7.45404,2.026875 -8.92983,2.140432 z"
       inkscape:transform-center-x="0.14928775"
       inkscape:transform-center-y="-1.5426516" />
    <path
       style="fill:none;stroke:#ff0000;stroke-width:2;stroke-linecap:butt;stroke-linejoin:miter;stroke-miterlimit:4;stroke-opacity:1;stroke-dasharray:none"
       d="m 260.97561,421.46788 c 10.5691,-19.5122 2.65673,-29.72684 13.00813,-28.45529 16.14334,1.98304 -7.23456,46.28712 8.94309,47.96748 12.74187,1.32349 4.22749,-17.64121 8.154,-29.83504 2.1595,-6.70636 -3.80413,-25.88103 3.22811,-25.44952 9.53611,0.58517 5.82505,14.29016 8.5173,28.54261 3.04832,16.13742 -2.61544,30.66749 6.11685,25.11593 13.58651,-8.63763 4.50838,-47.36036 12.19512,-59.34959 12.58423,-19.628 -3.6609,85.46897 8.94309,65.85366 9.17796,-14.28345 -1.57975,-80.48646 13.00814,-64.22764 11.7511,13.09711 -3.61249,52.58479 6.50406,59.34959 15.68715,10.48979 -1.66464,-51.02032 12.19512,-55.28455 12.43567,-3.82608 -4.11381,41.77874 4.06504,48.78049 12.89764,11.0414 3.70927,-49.95554 7.31707,-50.40651 13.00813,-1.62601 0.91177,57.04518 9.75611,59.3496 8.85867,2.30816 -2.95563,-56.35028 5.69105,-68.29269 11.89008,-16.42205 -0.71504,58.04518 13.00812,60.97561 8.19636,1.75024 -5.16137,-52.26994 10.56911,-52.84553 12.73018,-0.4658 -5.74312,49.0413 8.13008,55.28456 4.96146,2.23277 -3.16446,-18.86264 4.06505,-34.95936 4.65951,-10.37455 2.71014,-26.39326 8.13008,-21.13821 9.64235,9.34899 3.15885,37.93885 12.19512,52.03252 14.21925,0.009 -8.52814,-42.31544 5.69106,-42.27642 16.9414,0.0465 -10.42316,49.71208 6.50406,50.40651 24.64201,1.01092 -9.10657,-74.67393 15.44716,-72.35773 24.28844,2.29118 -18.12017,87.8548 1.62601,73.17074 15.43357,-11.47703 0.96275,-85.05295 18.69919,-70.73172 12.16082,9.81922 -16.22586,65.79054 6.50407,68.29268 22.65958,2.49441 4.51239,-83.55089 21.1382,-65.04065 5.20868,5.79906 -5.86778,60.9878 6.50407,63.41464 21.18431,4.15549 -1.86488,-70.20867 18.69918,-72.35772 24.97331,-2.60985 -0.37861,80.77237 18.6992,82.92682 21.91568,2.47493 0.18712,-85.32869 20.3252,-93.49593 23.59735,-9.57018 -14.12663,65.02553 8.94309,70.73171 9.63371,2.38285 7.27802,-25.9844 17.07317,-24.39024 15.0648,2.45179 -2.24608,43.38434 13.00813,43.90244 22.53893,0.76551 1.04311,-64.31021 23.57724,-63.41464 20.82963,0.82783 -3.7023,58.44822 17.07317,60.1626 21.50525,1.7746 26.82926,-50.4065 27.64227,-58.53658"
       id="path3775"
       inkscape:connector-curvature="0"
       sodipodi:nodetypes="csssssssssssssssssssscaaassasssssaaaaac" />
    <path
       style="fill:none;stroke:#0007ff;stroke-width:1.90762889;stroke-linecap:butt;stroke-linejoin:miter;stroke-miterlimit:4;stroke-opacity:1;stroke-dasharray:none"
       d="m 255.46341,510.07694 c 9.61537,-19.5122 2.76283,-34.85571 9.61537,-27.64228 7.29016,7.6741 0.60246,36.64411 8.13609,52.84553 5.30414,11.4068 4.58565,-52.60056 8.15784,-64.79439 1.96464,-6.70636 1.03619,61.11084 7.43385,61.54235 8.67559,0.58517 -3.22691,-49.31981 9.96765,-49.50617 8.6904,-0.12274 -5.27884,48.55367 2.66547,43.00211 12.36049,-8.63763 4.10155,-26.22215 11.09466,-38.21138 11.44865,-19.628 1.10731,43.19255 12.57395,23.57724 1.2332,-2.10957 -0.8876,-47.51158 2.44775,-46.25127 5.48877,2.07401 5.07537,71.68361 8.14717,66.58922 10.51681,-17.44145 3.27194,-73.3332 11.35772,-63.42738 10.69071,13.0971 -3.28651,52.58479 5.91714,59.34959 14.27158,10.48979 -1.51442,-51.02032 11.09466,-55.28455 11.3135,-3.82608 -3.74259,41.77874 3.69822,48.78049 11.73378,11.0414 3.37455,-49.95554 6.65679,-50.40651 11.8343,-1.62601 0.8295,57.04518 8.87574,59.3496 8.05928,2.30816 -2.68892,-56.35028 5.1775,-68.29269 10.81714,-16.42204 -4.8517,59.6712 7.63311,62.60163 7.45674,1.75024 -9.81394,-58.77401 4.49705,-59.3496 11.58143,-0.4658 -1.52665,55.54537 11.09466,61.78863 4.51374,2.23277 -2.87891,-47.31793 3.69822,-63.41465 4.23905,-10.37455 0.24665,50.84251 5.17751,56.09756 8.77224,9.34899 2.13416,-53.93106 10.35502,-39.83739 12.93613,0.009 -3.71296,56.11896 8.87573,52.84553 11.04394,-2.87176 3.64024,-89.2201 8.22371,-73.23649 3.49104,12.17409 0.41398,68.05821 7.07211,68.35844 10.9181,0.49234 7.03429,-13.14359 4.99969,-31.16165 -2.12557,-18.82369 0.55307,-28.92578 6.83463,-39.57006 12.07847,-20.46733 -5.39039,78.91171 12.57394,64.22765 14.04087,-11.47703 -7.99986,-62.28872 8.13608,-47.96749 11.06345,9.81922 -1.78807,70.1251 7.39645,50.4065 9.1332,-19.60846 -6.12171,-83.14318 4.15678,-60.97561 9.46985,20.42357 10.09124,-2.23135 11.9092,11.01045 2.33689,17.02159 -1.22798,52.66523 5.10261,54.03021 10.26419,2.21312 6.21482,-16.21894 5.72328,-35.77831 -0.4314,-17.16651 -3.65442,-37.20091 5.09031,-38.20543 22.71977,-2.60985 -4.32373,79.95936 13.03254,82.11381 10.01394,1.24304 8.11221,-88.73875 17.24627,-75.58388 9.65001,13.89797 -1.65565,81.7911 7.75833,73.12323 10.30781,-9.49087 12.65193,-86.48026 17.42137,-88.59624 25.01972,-11.10008 -10.46116,63.99573 8.13609,70.7317 8.57496,3.10586 6.62126,-25.9844 15.53252,-24.39024 13.70538,2.45179 -2.05086,44.03724 11.8343,43.90244 19.95503,-0.19373 -3.96461,-63.34749 15.99111,-63.41464 18.96489,-0.0638 -2.22593,52.84595 15.53252,60.1626 6.31288,2.60096 2.28613,-63.65112 9.56106,-79.69847 9.13251,-20.14489 6.75697,82.72274 15.45787,74.91856 16.42687,-14.73392 14.54284,-50.40385 14.92184,-54.56968"
       id="path3775-2"
       inkscape:connector-curvature="0"
       sodipodi:nodetypes="csssssssssssssssssssssscssssssssssssssssssaaasssc" />
    <path
       style="fill:none;stroke:#ff0000;stroke-width:0.46200654;stroke-linecap:butt;stroke-linejoin:miter;stroke-miterlimit:4;stroke-opacity:1;stroke-dasharray:none"
       d="m 123.72311,747.64024 c 4.50738,2.4415 6.867,0.61372 6.57326,3.00493 -0.45808,3.72917 -10.69247,-1.67121 -11.08064,2.06588 -0.30573,2.94342 4.07518,0.97656 6.89199,1.88361 1.54919,0.49885 5.9786,-0.87878 5.87892,0.7457 -0.13517,2.20288 -3.30107,1.34561 -6.59343,1.96753 -3.7278,0.70417 -7.08429,-0.60418 -5.80186,1.41301 1.99532,3.13853 10.94039,1.04145 13.70994,2.81711 4.53414,2.907 -19.74361,-0.84568 -15.21241,2.06589 3.29953,2.12013 18.59264,-0.36493 14.8368,3.00492 -3.02548,2.71454 -12.14726,-0.8345 -13.70995,1.50246 -2.42318,3.62378 11.78586,-0.38454 12.77091,2.81711 0.88384,2.87268 -9.65102,-0.9503 -11.26845,0.93904 -2.5506,2.97939 11.53989,0.85685 11.64407,1.69026 0.37561,3.00493 -13.17763,0.21063 -13.70995,2.2537 -0.5332,2.04638 13.01709,-0.68276 15.77583,1.31465 3.79355,2.74665 -13.40863,-0.16518 -14.08557,3.00492 -0.40431,1.89338 12.07453,-1.1923 12.20749,2.4415 0.10761,2.94071 -11.3287,-1.32668 -12.77091,1.87807 -0.51578,1.14611 4.35733,-0.731 8.07573,0.93904 2.39655,1.07636 6.09693,0.62605 4.88299,1.87808 -2.15964,2.22741 -8.764,0.7297 -12.01968,2.81711 -0.002,3.28469 9.77501,-1.97003 9.76599,1.31465 -0.0107,3.91352 -11.48365,-2.40778 -11.64407,1.50246 -0.23352,5.69239 17.24992,-2.10365 16.71488,3.56835 -0.52927,5.61071 -20.29475,-4.18582 -16.90268,0.37561 2.65123,3.56521 19.6475,0.2224 16.33925,4.31958 -2.26827,2.80919 -15.19783,-3.74823 -15.77583,1.50246 -0.57622,5.23444 19.30053,1.04238 15.0246,4.88299 -1.3396,1.20323 -14.08838,-1.35547 -14.64898,1.50246 -0.95994,4.89365 16.21843,-0.43079 16.71486,4.31958 0.60289,5.76891 -18.65868,-0.0875 -19.15636,4.31957 -0.57172,5.0626 19.7112,0.0432 21.59786,4.69519 2.21075,5.45107 -15.02111,-3.2633 -16.33925,2.06588 -0.55045,2.22542 6.00248,1.68125 5.63422,3.94396 -0.56637,3.48002 -10.02192,-0.51885 -10.1416,3.00492 -0.17684,5.20657 14.85586,0.24096 14.64898,5.44642 -0.19123,4.81171 -13.50172,-0.85524 -13.89775,3.94396 -0.40994,4.96778 11.64406,6.19765 13.52214,6.38545"
       id="path3775-6"
       inkscape:connector-curvature="0"
       sodipodi:nodetypes="csssssssssssssssssssscaaassasssssaaaaac" />
    <path
       style="fill:none;stroke:#0007ff;stroke-width:0.43762884;stroke-linecap:butt;stroke-linejoin:miter;stroke-miterlimit:4;stroke-opacity:1;stroke-dasharray:none"
       d="m 99.137496,747.33613 c 4.476294,2.20586 7.996254,0.63382 6.341414,2.20586 -1.76051,1.67244 -8.406524,0.13821 -12.123284,1.8665 -2.61683,1.21682 12.067084,1.052 14.864474,1.87149 1.5385,0.45071 -14.019444,0.23771 -14.118424,1.7054 -0.13424,1.99027 11.314444,-0.74029 11.357204,2.28668 0.0281,1.99366 -11.138694,-1.21102 -9.865114,0.61148 1.98156,2.83562 6.015624,0.94094 8.766074,2.54523 4.50286,2.62643 -9.908804,0.25402 -5.408864,2.88458 0.48396,0.28291 10.899634,-0.20362 10.610504,0.56154 -0.47579,1.25918 -16.444924,1.16434 -15.276224,1.86904 4.00124,2.41266 16.823364,0.75062 14.550874,2.60557 -3.00461,2.45256 -12.063474,-0.75395 -13.615394,1.35745 -2.40645,3.27404 11.704574,-0.34742 12.682834,2.54523 0.87773,2.59543 -9.584454,-0.85859 -11.190734,0.84841 -2.53301,2.69184 11.460294,0.77415 11.563754,1.52713 0.37302,2.7149 -13.086734,0.1903 -13.615394,2.03618 -0.5295,1.84888 12.927324,-0.61686 15.667034,1.18777 3.76737,2.48156 -13.689174,-1.11303 -14.361444,1.75111 -0.40152,1.71065 13.483344,-2.25141 13.615394,1.03167 0.10685,2.65689 -12.742664,-0.35023 -14.174934,2.54522 -0.51221,1.0355 10.855214,-0.66045 14.547964,0.84841 2.38001,0.97248 -11.663784,0.0566 -12.869344,1.18777 -2.14475,2.01244 12.372314,0.4896 9.139094,2.37555 -0.002,2.96767 -12.874254,-0.85179 -12.123284,2.03618 0.6588,2.53359 20.467964,0.8351 16.801174,1.8866 -2.79286,0.80088 -15.613234,0.095 -15.682114,1.62241 -0.11294,2.50472 3.01528,1.61373 7.148794,1.14698 4.31834,-0.48763 6.63586,0.12688 9.07776,1.56793 4.69542,2.77092 -18.103124,-1.23661 -14.734454,2.88458 2.63295,3.22112 14.289654,-1.83524 11.004214,1.8665 -2.25262,2.53806 -16.087384,-0.4102 -11.563744,1.69682 4.498374,2.09525 19.073874,-1.40438 13.988414,0.95361 -4.68537,2.17247 0.51188,2.31502 -2.52592,2.73208 -3.90491,0.53611 -12.081924,-0.28171 -12.395064,1.17059 -0.5077,2.35471 3.72079,1.42574 8.207904,1.31298 3.93817,-0.099 8.53426,-0.83836 8.7647,1.16777 0.59873,5.21213 -18.343464,-0.99191 -18.837714,2.98979 -0.28516,2.2973 20.357544,1.86102 17.339694,3.95647 -3.18834,2.2138 -18.763694,-0.37983 -16.775204,1.77983 2.1773,2.36472 19.839434,2.90248 20.324864,3.99663 2.54646,5.73978 -14.681264,-2.39988 -16.226554,1.86651 -0.71251,1.96717 5.961084,1.51898 5.595364,3.56331 -0.56247,3.14414 -10.102574,-0.47049 -10.071654,2.7149 0.0444,4.57788 14.532534,-0.90951 14.547944,3.66852 0.0147,4.35074 -12.123384,-0.51065 -13.801894,3.56331 -0.59669,1.44824 14.602194,0.52447 18.283614,2.19341 4.62143,2.09508 -18.977414,1.55011 -17.187054,3.54618 3.3801,3.76848 11.563134,3.33627 12.518824,3.42322"
       id="path3775-2-4"
       inkscape:connector-curvature="0"
       sodipodi:nodetypes="csssssssssssssssssssssscssssssssssssssssssaaasssc" />
    <path
       style="fill:none;stroke:#a100ff;stroke-width:2;stroke-linecap:butt;stroke-linejoin:miter;stroke-miterlimit:4;stroke-opacity:1;stroke-dasharray:none"
       d="m 114,907.50039 c 0,0 1.36705,-0.49198 22.8156,0.4271 4.96799,0.21288 3.88688,-9.55898 12.17142,-8.91085 5.21259,0.40781 3.77206,12.87349 10.32058,14.8915 4.32435,1.33261 6.69758,-6.37004 12.0424,-7.41747 7.71165,-1.51125 11.58745,-1.14827 16.63375,-2.24231 11.1363,-2.41434 0.21921,-30.095 8.94308,-22.76423 12.40962,10.42796 -2.78523,59.49435 13.00813,57.72358 8.53668,-0.95715 7.38729,-80.34343 21.95122,-80.48781 12.80982,-0.12699 -14.46386,99.83195 2.43903,91.05692 15.94424,-8.27736 4.66175,-54.528 13.00813,-61.78862 9.44088,-8.21274 5.95218,28.75748 11.38211,35.77235 7.92947,10.244 3.47392,-30.96172 15.44716,-26.01625 5.5615,2.29714 2.48618,15.92476 7.31707,19.51219 9.69357,7.19847 34.38727,-6.5753 46.34146,-4.87805 5.04112,0.71574 8.74536,6.10206 13.82114,6.50406 10.68742,0.84645 20.51153,-11.6143 30.89431,-8.94308 1.85584,0.47746 2.31006,3.29551 4.06504,4.06504 18.13327,7.95113 41.18688,-5.73866 59.34959,2.43902 4.20814,1.8947 -5.21688,12.44122 -0.813,13.82114 5.45527,1.70937 5.75931,-21.35769 11.38211,-20.32521 4.33906,0.79676 -2.08756,17.94369 1.62602,20.32521 4.69241,3.00924 2.37292,-7.66096 8.59001,-10.52305 7.491,-3.44855 23.33493,0.39822 25.55633,-0.0461 4.06504,-0.81301 23.75695,-8.77115 30.89431,-4.87804 8.94309,4.87805 41.46342,4.87804 50.4065,1.62601 6.16005,-2.24002 61.78862,-0.81301 69.10569,-0.81301 7.31708,0 52.03252,0 55.28456,0.81301"
       id="path4065"
       inkscape:connector-curvature="0"
       sodipodi:nodetypes="cssssssssssssssssssssssssssc" />
    <flowRoot
       xml:space="preserve"
       id="flowRoot4067"
       style="font-size:18px;font-style:normal;font-variant:normal;font-weight:normal;font-stretch:normal;line-height:125%;letter-spacing:0px;word-spacing:0px;fill:#000000;fill-opacity:1;stroke:none;font-family:Arial;-inkscape-font-specification:Arial"
       transform="translate(24.569106,101.80933)"><flowRegion
         id="flowRegion4069"><rect
           id="rect4071"
           width="65.040649"
           height="77.235794"
           x="54.471546"
           y="597.56097"
           style="font-size:18px;font-style:normal;font-variant:normal;font-weight:normal;font-stretch:normal;font-family:Arial;-inkscape-font-specification:Arial" /></flowRegion><flowPara
         id="flowPara4073"
         style="text-align:center;text-anchor:middle">time-lag 0</flowPara></flowRoot>    <flowRoot
       transform="translate(132.63179,102.64845)"
       xml:space="preserve"
       id="flowRoot4067-4"
       style="font-size:18px;font-style:normal;font-variant:normal;font-weight:normal;font-stretch:normal;line-height:125%;letter-spacing:0px;word-spacing:0px;fill:#000000;fill-opacity:1;stroke:none;font-family:Arial;-inkscape-font-specification:Arial"><flowRegion
         id="flowRegion4069-1"><rect
           id="rect4071-7"
           width="72.357727"
           height="43.902454"
           x="54.471546"
           y="597.56097"
           style="font-size:18px;font-style:normal;font-variant:normal;font-weight:normal;font-stretch:normal;font-family:Arial;-inkscape-font-specification:Arial" /></flowRegion><flowPara
         id="flowPara4073-3"
         style="text-align:center;text-anchor:middle">time-lag d/v</flowPara></flowRoot>    <path
       style="fill:none;stroke:#ff0000;stroke-width:0.46200654;stroke-linecap:butt;stroke-linejoin:miter;stroke-miterlimit:4;stroke-opacity:1;stroke-dasharray:none"
       d="m 232.2921,749.74726 c 4.50738,2.4415 6.867,0.61372 6.57326,3.00493 -0.45808,3.72917 -10.69247,-1.67121 -11.08064,2.06588 -0.30573,2.94342 4.07518,0.97656 6.89199,1.88361 1.54919,0.49885 5.9786,-0.87878 5.87892,0.7457 -0.13517,2.20288 -3.30107,1.34561 -6.59343,1.96753 -3.7278,0.70417 -7.08429,-0.60418 -5.80186,1.41301 1.99532,3.13853 10.94039,1.04145 13.70994,2.81711 4.53414,2.907 -19.74361,-0.84568 -15.21241,2.06589 3.29953,2.12013 18.59264,-0.36493 14.8368,3.00492 -3.02548,2.71454 -12.14726,-0.8345 -13.70995,1.50246 -2.42318,3.62378 11.78586,-0.38454 12.77091,2.81711 0.88384,2.87268 -9.65102,-0.9503 -11.26845,0.93904 -2.5506,2.97939 11.53989,0.85685 11.64407,1.69026 0.37561,3.00493 -13.17763,0.21063 -13.70995,2.2537 -0.5332,2.04638 13.01709,-0.68276 15.77583,1.31465 3.79355,2.74665 -13.40863,-0.16518 -14.08557,3.00492 -0.40431,1.89338 12.07453,-1.1923 12.20749,2.4415 0.10761,2.94071 -11.3287,-1.32668 -12.77091,1.87807 -0.51578,1.14611 4.35733,-0.731 8.07573,0.93904 2.39655,1.07636 6.09693,0.62605 4.88299,1.87808 -2.15964,2.22741 -8.764,0.7297 -12.01968,2.81711 -0.002,3.28469 9.77501,-1.97003 9.76599,1.31465 -0.0107,3.91352 -11.48365,-2.40778 -11.64407,1.50246 -0.23352,5.69239 17.24992,-2.10365 16.71488,3.56835 -0.52927,5.61071 -20.29475,-4.18582 -16.90268,0.37561 2.65123,3.56521 19.6475,0.2224 16.33925,4.31958 -2.26827,2.80919 -15.19783,-3.74823 -15.77583,1.50246 -0.57622,5.23444 19.30053,1.04238 15.0246,4.88299 -1.3396,1.20323 -14.08838,-1.35547 -14.64898,1.50246 -0.95994,4.89365 16.21843,-0.43079 16.71486,4.31958 0.60289,5.76891 -18.65868,-0.0875 -19.15636,4.31957 -0.57172,5.0626 19.7112,0.0432 21.59786,4.69519 2.21075,5.45107 -15.02111,-3.2633 -16.33925,2.06588 -0.55045,2.22542 6.00248,1.68125 5.63422,3.94396 -0.56637,3.48002 -10.02192,-0.51885 -10.1416,3.00492 -0.17684,5.20657 14.85586,0.24096 14.64898,5.44642 -0.19123,4.81171 -13.50172,-0.85524 -13.89775,3.94396 -0.40994,4.96778 11.64406,6.19765 13.52214,6.38545"
       id="path3775-6-1"
       inkscape:connector-curvature="0"
       sodipodi:nodetypes="csssssssssssssssssssscaaassasssssaaaaac" />
    <path
       style="fill:none;stroke:#0007ff;stroke-width:0.43762884;stroke-linecap:butt;stroke-linejoin:miter;stroke-miterlimit:4;stroke-opacity:1;stroke-dasharray:none"
       d="m 207.70649,763.26429 c 4.47629,2.20586 7.99625,0.63382 6.34141,2.20586 -1.76051,1.67244 -8.40652,0.13821 -12.12328,1.8665 -2.61683,1.21682 12.06708,1.052 14.86447,1.87149 1.5385,0.45071 -14.01944,0.23771 -14.11842,1.7054 -0.13424,1.99027 11.31444,-0.74029 11.3572,2.28668 0.0281,1.99366 -11.13869,-1.21102 -9.86511,0.61148 1.98156,2.83562 6.01562,0.94094 8.76607,2.54523 4.50286,2.62643 -9.9088,0.25402 -5.40886,2.88458 0.48396,0.28291 10.89963,-0.20362 10.6105,0.56154 -0.47579,1.25918 -16.44492,1.16434 -15.27622,1.86904 4.00124,2.41266 16.82336,0.75062 14.55087,2.60557 -3.00461,2.45256 -12.06347,-0.75395 -13.61539,1.35745 -2.40645,3.27404 11.70457,-0.34742 12.68283,2.54523 0.87773,2.59543 -9.58445,-0.85859 -11.19073,0.84841 -2.53301,2.69184 11.46029,0.77415 11.56375,1.52713 0.37302,2.7149 -13.08673,0.1903 -13.61539,2.03618 -0.5295,1.84888 12.92732,-0.61686 15.66703,1.18777 3.76737,2.48156 -13.68917,-1.11303 -14.36144,1.75111 -0.40152,1.71065 13.48334,-2.25141 13.61539,1.03167 0.10685,2.65689 -12.74266,-0.35023 -14.17493,2.54522 -0.51221,1.0355 10.85521,-0.66045 14.54796,0.84841 2.38001,0.97248 -11.66378,0.0566 -12.86934,1.18777 -2.14475,2.01244 12.37231,0.4896 9.13909,2.37555 -0.002,2.96767 -12.87425,-0.85179 -12.12328,2.03618 0.6588,2.53359 20.46796,0.8351 16.80117,1.8866 -2.79286,0.80088 -15.61323,0.095 -15.68211,1.62241 -0.11294,2.50472 3.01528,1.61373 7.14879,1.14698 4.31834,-0.48763 6.63586,0.12688 9.07776,1.56793 4.69542,2.77092 -18.10312,-1.23661 -14.73445,2.88458 2.63295,3.22112 14.28965,-1.83524 11.00421,1.8665 -2.25262,2.53806 -16.08738,-0.4102 -11.56374,1.69682 4.49837,2.09525 19.07387,-1.40438 13.98841,0.95361 -4.68537,2.17247 0.51188,2.31502 -2.52592,2.73208 -3.90491,0.53611 -12.08192,-0.28171 -12.39506,1.17059 -0.5077,2.35471 3.72079,1.42574 8.2079,1.31298 3.93817,-0.099 8.53426,-0.83836 8.7647,1.16777 0.59873,5.21213 -18.34346,-0.99191 -18.83771,2.98979 -0.28516,2.2973 20.35754,1.86102 17.33969,3.95647 -3.18834,2.2138 -18.76369,-0.37983 -16.7752,1.77983 2.1773,2.36472 19.83943,2.90248 20.32486,3.99663 2.54646,5.73978 -14.68126,-2.39988 -16.22655,1.86651 -0.71251,1.96717 5.96108,1.51898 5.59536,3.56331 -0.56247,3.14414 -10.10257,-0.47049 -10.07165,2.7149 0.0444,4.57788 14.53253,-0.90951 14.54794,3.66852 0.0147,4.35074 -12.12338,-0.51065 -13.80189,3.56331 -0.59669,1.44824 14.60219,0.52447 18.28361,2.19341 4.62143,2.09508 -18.97741,1.55011 -17.18705,3.54618 3.3801,3.76848 11.56313,3.33627 12.51882,3.42322"
       id="path3775-2-4-7"
       inkscape:connector-curvature="0"
       sodipodi:nodetypes="csssssssssssssssssssssscssssssssssssssssssaaasssc" />
    <path
       style="fill:none;stroke:#ff0000;stroke-width:0.46200654;stroke-linecap:butt;stroke-linejoin:miter;stroke-miterlimit:4;stroke-opacity:1;stroke-dasharray:none"
       d="m 361.56039,746.49523 c 4.50739,2.4415 6.86701,0.61372 6.57327,3.00493 -0.45808,3.72917 -10.69248,-1.67121 -11.08065,2.06588 -0.30573,2.94342 4.07518,0.97656 6.89199,1.88361 1.5492,0.49885 5.97861,-0.87878 5.87893,0.7457 -0.13517,2.20288 -3.30107,1.34561 -6.59344,1.96753 -3.7278,0.70417 -7.08429,-0.60418 -5.80186,1.41301 1.99532,3.13853 10.9404,1.04145 13.70995,2.81711 4.53414,2.907 -19.74362,-0.84568 -15.21242,2.06589 3.29953,2.12013 18.59265,-0.36493 14.83681,3.00492 -3.02548,2.71454 -12.14727,-0.8345 -13.70996,1.50246 -2.42318,3.62378 11.78587,-0.38454 12.77092,2.81711 0.88384,2.87268 -9.65103,-0.9503 -11.26846,0.93904 -2.5506,2.97939 11.5399,0.85685 11.64408,1.69026 0.37561,3.00493 -13.17764,0.21063 -13.70996,2.2537 -0.5332,2.04638 13.0171,-0.68276 15.77584,1.31465 3.79355,2.74665 -13.40864,-0.16518 -14.08558,3.00492 -0.40431,1.89338 12.07454,-1.1923 12.2075,2.4415 0.10761,2.94071 -11.32871,-1.32668 -12.77092,1.87807 -0.51578,1.14611 4.35733,-0.731 8.07574,0.93904 2.39655,1.07636 6.09693,0.62605 4.88299,1.87808 -2.15964,2.22741 -8.76401,0.7297 -12.01969,2.81711 -0.002,3.28469 9.77502,-1.97003 9.766,1.31465 -0.0107,3.91352 -11.48366,-2.40778 -11.64408,1.50246 -0.23352,5.69239 17.24993,-2.10365 16.71489,3.56835 -0.52927,5.61071 -20.29476,-4.18582 -16.90269,0.37561 2.65123,3.56521 19.64751,0.2224 16.33926,4.31958 -2.26827,2.80919 -15.19784,-3.74823 -15.77584,1.50246 -0.57622,5.23444 19.30054,1.04238 15.02461,4.88299 -1.3396,1.20323 -14.08839,-1.35547 -14.64899,1.50246 -0.95994,4.89365 16.21844,-0.43079 16.71487,4.31958 0.60289,5.76891 -18.65869,-0.0875 -19.15637,4.31957 -0.57172,5.0626 19.71121,0.0432 21.59787,4.69519 2.21075,5.45107 -15.02112,-3.2633 -16.33926,2.06588 -0.55045,2.22542 6.00249,1.68125 5.63423,3.94396 -0.56637,3.48002 -10.02193,-0.51885 -10.14161,3.00492 -0.17684,5.20657 14.85587,0.24096 14.64899,5.44642 -0.19123,4.81171 -13.50173,-0.85524 -13.89776,3.94396 -0.40994,4.96778 11.64407,6.19765 13.52215,6.38545"
       id="path3775-6-7"
       inkscape:connector-curvature="0"
       sodipodi:nodetypes="csssssssssssssssssssscaaassasssssaaaaac" />
    <path
       style="fill:none;stroke:#0007ff;stroke-width:0.43762884;stroke-linecap:butt;stroke-linejoin:miter;stroke-miterlimit:4;stroke-opacity:1;stroke-dasharray:none"
       d="m 334.53576,777.89844 c 4.47629,2.20586 7.99625,0.63382 6.34141,2.20586 -1.76051,1.67244 -8.40652,0.13821 -12.12328,1.8665 -2.61683,1.21682 12.06708,1.052 14.86447,1.87149 1.5385,0.45071 -14.01944,0.23771 -14.11842,1.7054 -0.13424,1.99027 11.31444,-0.74029 11.3572,2.28668 0.0281,1.99366 -11.13869,-1.21102 -9.86511,0.61148 1.98156,2.83562 6.01562,0.94094 8.76607,2.54523 4.50286,2.62643 -9.9088,0.25402 -5.40886,2.88458 0.48396,0.28291 10.89963,-0.20362 10.6105,0.56154 -0.47579,1.25918 -16.44492,1.16434 -15.27622,1.86904 4.00124,2.41266 16.82336,0.75062 14.55087,2.60557 -3.00461,2.45256 -12.06347,-0.75395 -13.61539,1.35745 -2.40645,3.27404 11.70457,-0.34742 12.68283,2.54523 0.87773,2.59543 -9.58445,-0.85859 -11.19073,0.84841 -2.53301,2.69184 11.46029,0.77415 11.56375,1.52713 0.37302,2.7149 -13.08673,0.1903 -13.61539,2.03618 -0.5295,1.84888 12.92732,-0.61686 15.66703,1.18777 3.76737,2.48156 -13.68917,-1.11303 -14.36144,1.75111 -0.40152,1.71065 13.48334,-2.25141 13.61539,1.03167 0.10685,2.65689 -12.74266,-0.35023 -14.17493,2.54522 -0.51221,1.0355 10.85521,-0.66045 14.54796,0.84841 2.38001,0.97248 -11.66378,0.0566 -12.86934,1.18777 -2.14475,2.01244 12.37231,0.4896 9.13909,2.37555 -0.002,2.96767 -12.87425,-0.85179 -12.12328,2.03618 0.6588,2.53359 20.46796,0.8351 16.80117,1.8866 -2.79286,0.80088 -15.61323,0.095 -15.68211,1.62241 -0.11294,2.50472 3.01528,1.61373 7.14879,1.14698 4.31834,-0.48763 6.63586,0.12688 9.07776,1.56793 4.69542,2.77092 -18.10312,-1.23661 -14.73445,2.88458 2.63295,3.22112 14.28965,-1.83524 11.00421,1.8665 -2.25262,2.53806 -16.08738,-0.4102 -11.56374,1.69682 4.49837,2.09525 19.07387,-1.40438 13.98841,0.95361 -4.68537,2.17247 0.51188,2.31502 -2.52592,2.73208 -3.90491,0.53611 -12.08192,-0.28171 -12.39506,1.17059 -0.5077,2.35471 3.72079,1.42574 8.2079,1.31298 3.93817,-0.099 8.53426,-0.83836 8.7647,1.16777 0.59873,5.21213 -18.34346,-0.99191 -18.83771,2.98979 -0.28516,2.2973 20.35754,1.86102 17.33969,3.95647 -3.18834,2.2138 -18.76369,-0.37983 -16.7752,1.77983 2.1773,2.36472 19.83943,2.90248 20.32486,3.99663 2.54646,5.73978 -14.68126,-2.39988 -16.22655,1.86651 -0.71251,1.96717 5.96108,1.51898 5.59536,3.56331 -0.56247,3.14414 -10.10257,-0.47049 -10.07165,2.7149 0.0444,4.57788 14.53253,-0.90951 14.54794,3.66852 0.0147,4.35074 -12.12338,-0.51065 -13.80189,3.56331 -0.59669,1.44824 14.60219,0.52447 18.28361,2.19341 4.62143,2.09508 -18.97741,1.55011 -17.18705,3.54618 3.3801,3.76848 11.56313,3.33627 12.51882,3.42322"
       id="path3775-2-4-0"
       inkscape:connector-curvature="0"
       sodipodi:nodetypes="csssssssssssssssssssssscssssssssssssssssssaaasssc" />
    <path
       style="fill:none;stroke:#ff0000;stroke-width:0.46200654;stroke-linecap:butt;stroke-linejoin:miter;stroke-miterlimit:4;stroke-opacity:1;stroke-dasharray:none"
       d="m 489.60916,746.46272 c 4.50739,2.4415 6.86701,0.61372 6.57327,3.00493 -0.45808,3.72917 -10.69248,-1.67121 -11.08065,2.06588 -0.30573,2.94342 4.07518,0.97656 6.89199,1.88361 1.5492,0.49885 5.97861,-0.87878 5.87893,0.7457 -0.13517,2.20288 -3.30107,1.34561 -6.59344,1.96753 -3.7278,0.70417 -7.08429,-0.60418 -5.80186,1.41301 1.99532,3.13853 10.9404,1.04145 13.70995,2.81711 4.53414,2.907 -19.74362,-0.84568 -15.21242,2.06589 3.29953,2.12013 18.59265,-0.36493 14.83681,3.00492 -3.02548,2.71454 -12.14727,-0.8345 -13.70996,1.50246 -2.42318,3.62378 11.78587,-0.38454 12.77092,2.81711 0.88384,2.87268 -9.65103,-0.9503 -11.26846,0.93904 -2.5506,2.97939 11.5399,0.85685 11.64408,1.69026 0.37561,3.00493 -13.17764,0.21063 -13.70996,2.2537 -0.5332,2.04638 13.0171,-0.68276 15.77584,1.31465 3.79355,2.74665 -13.40864,-0.16518 -14.08558,3.00492 -0.40431,1.89338 12.07454,-1.1923 12.2075,2.4415 0.10761,2.94071 -11.32871,-1.32668 -12.77092,1.87807 -0.51578,1.14611 4.35733,-0.731 8.07574,0.93904 2.39655,1.07636 6.09693,0.62605 4.88299,1.87808 -2.15964,2.22741 -8.76401,0.7297 -12.01969,2.81711 -0.002,3.28469 9.77502,-1.97003 9.766,1.31465 -0.0107,3.91352 -11.48366,-2.40778 -11.64408,1.50246 -0.23352,5.69239 17.24993,-2.10365 16.71489,3.56835 -0.52927,5.61071 -20.29476,-4.18582 -16.90269,0.37561 2.65123,3.56521 19.64751,0.2224 16.33926,4.31958 -2.26827,2.80919 -15.19784,-3.74823 -15.77584,1.50246 -0.57622,5.23444 19.30054,1.04238 15.02461,4.88299 -1.3396,1.20323 -14.08839,-1.35547 -14.64899,1.50246 -0.95994,4.89365 16.21844,-0.43079 16.71487,4.31958 0.60289,5.76891 -18.65869,-0.0875 -19.15637,4.31957 -0.57172,5.0626 19.71121,0.0432 21.59787,4.69519 2.21075,5.45107 -15.02112,-3.2633 -16.33926,2.06588 -0.55045,2.22542 6.00249,1.68125 5.63423,3.94396 -0.56637,3.48002 -10.02193,-0.51885 -10.14161,3.00492 -0.17684,5.20657 14.85587,0.24096 14.64899,5.44642 -0.19123,4.81171 -13.50173,-0.85524 -13.89776,3.94396 -0.40994,4.96778 11.64407,6.19765 13.52215,6.38545"
       id="path3775-6-7-3"
       inkscape:connector-curvature="0"
       sodipodi:nodetypes="csssssssssssssssssssscaaassasssssaaaaac" />
    <path
       style="fill:none;stroke:#0007ff;stroke-width:0.43762884;stroke-linecap:butt;stroke-linejoin:miter;stroke-miterlimit:4;stroke-opacity:1;stroke-dasharray:none"
       d="m 462.58453,793.86593 c 4.47629,2.20586 7.99625,0.63382 6.34141,2.20586 -1.76051,1.67244 -8.40652,0.13821 -12.12328,1.8665 -2.61683,1.21682 12.06708,1.052 14.86447,1.87149 1.5385,0.45071 -14.01944,0.23771 -14.11842,1.7054 -0.13424,1.99027 11.31444,-0.74029 11.3572,2.28668 0.0281,1.99366 -11.13869,-1.21102 -9.86511,0.61148 1.98156,2.83562 6.01562,0.94094 8.76607,2.54523 4.50286,2.62643 -9.9088,0.25402 -5.40886,2.88458 0.48396,0.28291 10.89963,-0.20362 10.6105,0.56154 -0.47579,1.25918 -16.44492,1.16434 -15.27622,1.86904 4.00124,2.41266 16.82336,0.75062 14.55087,2.60557 -3.00461,2.45256 -12.06347,-0.75395 -13.61539,1.35745 -2.40645,3.27404 11.70457,-0.34742 12.68283,2.54523 0.87773,2.59543 -9.58445,-0.85859 -11.19073,0.84841 -2.53301,2.69184 11.46029,0.77415 11.56375,1.52713 0.37302,2.7149 -13.08673,0.1903 -13.61539,2.03618 -0.5295,1.84888 12.92732,-0.61686 15.66703,1.18777 3.76737,2.48156 -13.68917,-1.11303 -14.36144,1.75111 -0.40152,1.71065 13.48334,-2.25141 13.61539,1.03167 0.10685,2.65689 -12.74266,-0.35023 -14.17493,2.54522 -0.51221,1.0355 10.85521,-0.66045 14.54796,0.84841 2.38001,0.97248 -11.66378,0.0566 -12.86934,1.18777 -2.14475,2.01244 12.37231,0.4896 9.13909,2.37555 -0.002,2.96767 -12.87425,-0.85179 -12.12328,2.03618 0.6588,2.53359 20.46796,0.8351 16.80117,1.8866 -2.79286,0.80088 -15.61323,0.095 -15.68211,1.62241 -0.11294,2.50472 3.01528,1.61373 7.14879,1.14698 4.31834,-0.48763 6.63586,0.12688 9.07776,1.56793 4.69542,2.77092 -18.10312,-1.23661 -14.73445,2.88458 2.63295,3.22112 14.28965,-1.83524 11.00421,1.8665 -2.25262,2.53806 -16.08738,-0.4102 -11.56374,1.69682 4.49837,2.09525 19.07387,-1.40438 13.98841,0.95361 -4.68537,2.17247 0.51188,2.31502 -2.52592,2.73208 -3.90491,0.53611 -12.08192,-0.28171 -12.39506,1.17059 -0.5077,2.35471 3.72079,1.42574 8.2079,1.31298 3.93817,-0.099 8.53426,-0.83836 8.7647,1.16777 0.59873,5.21213 -18.34346,-0.99191 -18.83771,2.98979 -0.28516,2.2973 20.35754,1.86102 17.33969,3.95647 -3.18834,2.2138 -18.76369,-0.37983 -16.7752,1.77983 2.1773,2.36472 19.83943,2.90248 20.32486,3.99663 2.54646,5.73978 -14.68126,-2.39988 -16.22655,1.86651 -0.71251,1.96717 5.96108,1.51898 5.59536,3.56331 -0.56247,3.14414 -10.10257,-0.47049 -10.07165,2.7149 0.0444,4.57788 14.53253,-0.90951 14.54794,3.66852 0.0147,4.35074 -12.12338,-0.51065 -13.80189,3.56331 -0.59669,1.44824 14.60219,0.52447 18.28361,2.19341 4.62143,2.09508 -18.97741,1.55011 -17.18705,3.54618 3.3801,3.76848 11.56313,3.33627 12.51882,3.42322"
       id="path3775-2-4-0-2"
       inkscape:connector-curvature="0"
       sodipodi:nodetypes="csssssssssssssssssssssscssssssssssssssssssaaasssc" />
    <path
       style="fill:none;stroke:#ff0000;stroke-width:0.46200654;stroke-linecap:butt;stroke-linejoin:miter;stroke-miterlimit:4;stroke-opacity:1;stroke-dasharray:none"
       d="m 636.76363,744.78792 c 4.50739,2.4415 6.86701,0.61372 6.57327,3.00493 -0.45808,3.72917 -10.69248,-1.67121 -11.08065,2.06588 -0.30573,2.94342 4.07518,0.97656 6.89199,1.88361 1.5492,0.49885 5.97861,-0.87878 5.87893,0.7457 -0.13517,2.20288 -3.30107,1.34561 -6.59344,1.96753 -3.7278,0.70417 -7.08429,-0.60418 -5.80186,1.41301 1.99532,3.13853 10.9404,1.04145 13.70995,2.81711 4.53414,2.907 -19.74362,-0.84568 -15.21242,2.06589 3.29953,2.12013 18.59265,-0.36493 14.83681,3.00492 -3.02548,2.71454 -12.14727,-0.8345 -13.70996,1.50246 -2.42318,3.62378 11.78587,-0.38454 12.77092,2.81711 0.88384,2.87268 -9.65103,-0.9503 -11.26846,0.93904 -2.5506,2.97939 11.5399,0.85685 11.64408,1.69026 0.37561,3.00493 -13.17764,0.21063 -13.70996,2.2537 -0.5332,2.04638 13.0171,-0.68276 15.77584,1.31465 3.79355,2.74665 -13.40864,-0.16518 -14.08558,3.00492 -0.40431,1.89338 12.07454,-1.1923 12.2075,2.4415 0.10761,2.94071 -11.32871,-1.32668 -12.77092,1.87807 -0.51578,1.14611 4.35733,-0.731 8.07574,0.93904 2.39655,1.07636 6.09693,0.62605 4.88299,1.87808 -2.15964,2.22741 -8.76401,0.7297 -12.01969,2.81711 -0.002,3.28469 9.77502,-1.97003 9.766,1.31465 -0.0107,3.91352 -11.48366,-2.40778 -11.64408,1.50246 -0.23352,5.69239 17.24993,-2.10365 16.71489,3.56835 -0.52927,5.61071 -20.29476,-4.18582 -16.90269,0.37561 2.65123,3.56521 19.64751,0.2224 16.33926,4.31958 -2.26827,2.80919 -15.19784,-3.74823 -15.77584,1.50246 -0.57622,5.23444 19.30054,1.04238 15.02461,4.88299 -1.3396,1.20323 -14.08839,-1.35547 -14.64899,1.50246 -0.95994,4.89365 16.21844,-0.43079 16.71487,4.31958 0.60289,5.76891 -18.65869,-0.0875 -19.15637,4.31957 -0.57172,5.0626 19.71121,0.0432 21.59787,4.69519 2.21075,5.45107 -15.02112,-3.2633 -16.33926,2.06588 -0.55045,2.22542 6.00249,1.68125 5.63423,3.94396 -0.56637,3.48002 -10.02193,-0.51885 -10.14161,3.00492 -0.17684,5.20657 14.85587,0.24096 14.64899,5.44642 -0.19123,4.81171 -13.50173,-0.85524 -13.89776,3.94396 -0.40994,4.96778 11.64407,6.19765 13.52215,6.38545"
       id="path3775-6-7-3-7"
       inkscape:connector-curvature="0"
       sodipodi:nodetypes="csssssssssssssssssssscaaassasssssaaaaac" />
    <path
       style="fill:none;stroke:#0007ff;stroke-width:0.43762884;stroke-linecap:butt;stroke-linejoin:miter;stroke-miterlimit:4;stroke-opacity:1;stroke-dasharray:none"
       d="m 609.739,808.45129 c 4.47629,2.20586 7.99625,0.63382 6.34141,2.20586 -1.76051,1.67244 -8.40652,0.13821 -12.12328,1.8665 -2.61683,1.21682 12.06708,1.052 14.86447,1.87149 1.5385,0.45071 -14.01944,0.23771 -14.11842,1.7054 -0.13424,1.99027 11.31444,-0.74029 11.3572,2.28668 0.0281,1.99366 -11.13869,-1.21102 -9.86511,0.61148 1.98156,2.83562 6.01562,0.94094 8.76607,2.54523 4.50286,2.62643 -9.9088,0.25402 -5.40886,2.88458 0.48396,0.28291 10.89963,-0.20362 10.6105,0.56154 -0.47579,1.25918 -16.44492,1.16434 -15.27622,1.86904 4.00124,2.41266 16.82336,0.75062 14.55087,2.60557 -3.00461,2.45256 -12.06347,-0.75395 -13.61539,1.35745 -2.40645,3.27404 11.70457,-0.34742 12.68283,2.54523 0.87773,2.59543 -9.58445,-0.85859 -11.19073,0.84841 -2.53301,2.69184 11.46029,0.77415 11.56375,1.52713 0.37302,2.7149 -13.08673,0.1903 -13.61539,2.03618 -0.5295,1.84888 12.92732,-0.61686 15.66703,1.18777 3.76737,2.48156 -13.68917,-1.11303 -14.36144,1.75111 -0.40152,1.71065 13.48334,-2.25141 13.61539,1.03167 0.10685,2.65689 -12.74266,-0.35023 -14.17493,2.54522 -0.51221,1.0355 10.85521,-0.66045 14.54796,0.84841 2.38001,0.97248 -11.66378,0.0566 -12.86934,1.18777 -2.14475,2.01244 12.37231,0.4896 9.13909,2.37555 -0.002,2.96767 -12.87425,-0.85179 -12.12328,2.03618 0.6588,2.53359 20.46796,0.8351 16.80117,1.8866 -2.79286,0.80088 -15.61323,0.095 -15.68211,1.62241 -0.11294,2.50472 3.01528,1.61373 7.14879,1.14698 4.31834,-0.48763 6.63586,0.12688 9.07776,1.56793 4.69542,2.77092 -18.10312,-1.23661 -14.73445,2.88458 2.63295,3.22112 14.28965,-1.83524 11.00421,1.8665 -2.25262,2.53806 -16.08738,-0.4102 -11.56374,1.69682 4.49837,2.09525 19.07387,-1.40438 13.98841,0.95361 -4.68537,2.17247 0.51188,2.31502 -2.52592,2.73208 -3.90491,0.53611 -12.08192,-0.28171 -12.39506,1.17059 -0.5077,2.35471 3.72079,1.42574 8.2079,1.31298 3.93817,-0.099 8.53426,-0.83836 8.7647,1.16777 0.59873,5.21213 -18.34346,-0.99191 -18.83771,2.98979 -0.28516,2.2973 20.35754,1.86102 17.33969,3.95647 -3.18834,2.2138 -18.76369,-0.37983 -16.7752,1.77983 2.1773,2.36472 19.83943,2.90248 20.32486,3.99663 2.54646,5.73978 -14.68126,-2.39988 -16.22655,1.86651 -0.71251,1.96717 5.96108,1.51898 5.59536,3.56331 -0.56247,3.14414 -10.10257,-0.47049 -10.07165,2.7149 0.0444,4.57788 14.53253,-0.90951 14.54794,3.66852 0.0147,4.35074 -12.12338,-0.51065 -13.80189,3.56331 -0.59669,1.44824 14.60219,0.52447 18.28361,2.19341 4.62143,2.09508 -18.97741,1.55011 -17.18705,3.54618 3.3801,3.76848 11.56313,3.33627 12.51882,3.42322"
       id="path3775-2-4-0-2-6"
       inkscape:connector-curvature="0"
       sodipodi:nodetypes="csssssssssssssssssssssscssssssssssssssssssaaasssc" />
    <flowRoot
       xml:space="preserve"
       id="flowRoot4221"
       style="fill:black;stroke:none;stroke-opacity:1;stroke-width:1px;stroke-linejoin:miter;stroke-linecap:butt;fill-opacity:1;font-family:Britannic Bold;font-style:normal;font-weight:normal;font-size:14px;line-height:125%;letter-spacing:0px;word-spacing:0px;-inkscape-font-specification:Britannic Bold"><flowRegion
         id="flowRegion4223"><rect
           id="rect4225"
           width="61.788616"
           height="46.341465"
           x="178.04878"
           y="447.96747" /></flowRegion><flowPara
         id="flowPara4227"></flowPara></flowRoot>    <flowRoot
       transform="translate(527.88473,98.022482)"
       xml:space="preserve"
       id="flowRoot4067-4-4"
       style="font-size:18px;font-style:normal;font-variant:normal;font-weight:normal;font-stretch:normal;line-height:125%;letter-spacing:0px;word-spacing:0px;fill:#000000;fill-opacity:1;stroke:none;font-family:Arial;-inkscape-font-specification:Arial"><flowRegion
         id="flowRegion4069-1-6"><rect
           id="rect4071-7-9"
           width="72.357727"
           height="43.902454"
           x="54.471546"
           y="597.56097"
           style="font-size:18px;font-style:normal;font-variant:normal;font-weight:normal;font-stretch:normal;font-family:Arial;-inkscape-font-specification:Arial" /></flowRegion><flowPara
         id="flowPara4073-3-8"
         style="text-align:center;text-anchor:middle">large time-lag</flowPara></flowRoot>    <flowRoot
       transform="translate(626.86516,-170.42837)"
       xml:space="preserve"
       id="flowRoot4067-4-4-2"
       style="font-size:18px;font-style:normal;font-variant:normal;font-weight:normal;font-stretch:normal;line-height:125%;letter-spacing:0px;word-spacing:0px;fill:#000000;fill-opacity:1;stroke:none;font-family:Arial;-inkscape-font-specification:Arial"><flowRegion
         id="flowRegion4069-1-6-3"><rect
           id="rect4071-7-9-2"
           width="95.121941"
           height="76.422783"
           x="54.471546"
           y="597.56097"
           style="font-size:18px;font-style:normal;font-variant:normal;font-weight:normal;font-stretch:normal;font-family:Arial;-inkscape-font-specification:Arial" /></flowRegion><flowPara
         id="flowPara4073-3-8-5"
         style="text-align:center;text-anchor:middle">recorded data</flowPara></flowRoot>    <flowRoot
       transform="translate(-31.288329,324.50896)"
       xml:space="preserve"
       id="flowRoot4067-4-4-2-7"
       style="font-size:18px;font-style:normal;font-variant:normal;font-weight:normal;font-stretch:normal;line-height:125%;letter-spacing:0px;word-spacing:0px;fill:#000000;fill-opacity:1;stroke:none;font-family:Arial;-inkscape-font-specification:Arial"><flowRegion
         id="flowRegion4069-1-6-3-4"><rect
           id="rect4071-7-9-2-7"
           width="163.41463"
           height="24.390276"
           x="54.471546"
           y="597.56097"
           style="font-size:18px;font-style:normal;font-variant:normal;font-weight:normal;font-stretch:normal;font-family:Arial;-inkscape-font-specification:Arial" /></flowRegion><flowPara
         id="flowPara4073-3-8-5-7"
         style="text-align:center;text-anchor:middle">cross-correlation</flowPara></flowRoot>    <flowRoot
       transform="translate(109.18554,-157.26207)"
       xml:space="preserve"
       id="flowRoot4067-4-9"
       style="font-size:18px;font-style:normal;font-variant:normal;font-weight:normal;font-stretch:normal;line-height:125%;letter-spacing:0px;word-spacing:0px;fill:#000000;fill-opacity:1;stroke:none;font-family:Arial;-inkscape-font-specification:Arial"><flowRegion
         id="flowRegion4069-1-7"><rect
           id="rect4071-7-5"
           width="44.715446"
           height="20.32523"
           x="54.471546"
           y="597.56097"
           style="font-size:18px;font-style:normal;font-variant:normal;font-weight:normal;font-stretch:normal;font-family:Arial;-inkscape-font-specification:Arial" /></flowRegion><flowPara
         id="flowPara4073-3-4"
         style="text-align:center;text-anchor:middle">d</flowPara></flowRoot>    <path
       style="fill:none;stroke:#000000;stroke-width:1.5;stroke-linecap:butt;stroke-linejoin:miter;stroke-opacity:1;marker-start:url(#StopL);marker-end:url(#StopL);stroke-miterlimit:4;stroke-dasharray:6,6;stroke-dashoffset:0"
       d="m 200.81301,169.9187 0,81.30081"
       id="path4356"
       inkscape:connector-curvature="0"
       transform="translate(0,252.36218)" />
  </g>
</svg>
